<mxfile host="app.diagrams.net" modified="2023-09-06T22:03:15.970Z" agent="Mozilla/5.0 (X11; Linux x86_64) AppleWebKit/537.36 (KHTML, like Gecko) Chrome/115.0.0.0 Safari/537.36" etag="_WQaiOw4ZdJ0DH95dvr3" version="21.7.2" type="github">
  <diagram name="第 1 页" id="reo0W4DHmEvqvENfd4CY">
    <mxGraphModel dx="1207" dy="687" grid="1" gridSize="10" guides="1" tooltips="1" connect="1" arrows="1" fold="1" page="1" pageScale="1" pageWidth="827" pageHeight="1169" math="0" shadow="0">
      <root>
        <mxCell id="0" />
        <mxCell id="1" parent="0" />
        <mxCell id="bZsvWBhSHapUdeZmbFc5-8" value="Comments" style="swimlane;fontStyle=1;align=center;verticalAlign=top;childLayout=stackLayout;horizontal=1;startSize=26;horizontalStack=0;resizeParent=1;resizeParentMax=0;resizeLast=0;collapsible=1;marginBottom=0;whiteSpace=wrap;html=1;fillColor=none;fontSize=17;" parent="1" vertex="1">
          <mxGeometry x="60" y="60" width="120" height="170" as="geometry" />
        </mxCell>
        <mxCell id="bZsvWBhSHapUdeZmbFc5-9" value="&amp;nbsp; &amp;nbsp;id" style="text;strokeColor=none;fillColor=none;align=left;verticalAlign=top;spacingLeft=4;spacingRight=4;overflow=hidden;rotatable=0;points=[[0,0.5],[1,0.5]];portConstraint=eastwest;whiteSpace=wrap;html=1;fontSize=17;" parent="bZsvWBhSHapUdeZmbFc5-8" vertex="1">
          <mxGeometry y="26" width="120" height="26" as="geometry" />
        </mxCell>
        <mxCell id="bZsvWBhSHapUdeZmbFc5-10" value="" style="line;strokeWidth=1;fillColor=none;align=left;verticalAlign=middle;spacingTop=-1;spacingLeft=3;spacingRight=3;rotatable=0;labelPosition=right;points=[];portConstraint=eastwest;strokeColor=inherit;fontSize=17;" parent="bZsvWBhSHapUdeZmbFc5-8" vertex="1">
          <mxGeometry y="52" width="120" height="8" as="geometry" />
        </mxCell>
        <mxCell id="bZsvWBhSHapUdeZmbFc5-11" value="&amp;nbsp; &amp;nbsp;created_at&lt;br style=&quot;font-size: 17px;&quot;&gt;&amp;nbsp; &amp;nbsp;deleted_at&lt;br style=&quot;font-size: 17px;&quot;&gt;&amp;nbsp; &amp;nbsp;user_id&lt;br style=&quot;font-size: 17px;&quot;&gt;&amp;nbsp; &amp;nbsp;video_id&lt;br style=&quot;font-size: 17px;&quot;&gt;&amp;nbsp; &amp;nbsp;content" style="text;strokeColor=none;fillColor=none;align=left;verticalAlign=top;spacingLeft=4;spacingRight=4;overflow=hidden;rotatable=0;points=[[0,0.5],[1,0.5]];portConstraint=eastwest;whiteSpace=wrap;html=1;fontSize=17;" parent="bZsvWBhSHapUdeZmbFc5-8" vertex="1">
          <mxGeometry y="60" width="120" height="110" as="geometry" />
        </mxCell>
        <mxCell id="bZsvWBhSHapUdeZmbFc5-12" value="Favorites" style="swimlane;fontStyle=1;align=center;verticalAlign=top;childLayout=stackLayout;horizontal=1;startSize=26;horizontalStack=0;resizeParent=1;resizeParentMax=0;resizeLast=0;collapsible=1;marginBottom=0;whiteSpace=wrap;html=1;fillColor=none;fontSize=17;" parent="1" vertex="1">
          <mxGeometry x="280" y="60" width="120" height="150" as="geometry" />
        </mxCell>
        <mxCell id="bZsvWBhSHapUdeZmbFc5-13" value="&amp;nbsp; &amp;nbsp;id" style="text;strokeColor=none;fillColor=none;align=left;verticalAlign=top;spacingLeft=4;spacingRight=4;overflow=hidden;rotatable=0;points=[[0,0.5],[1,0.5]];portConstraint=eastwest;whiteSpace=wrap;html=1;fontSize=17;" parent="bZsvWBhSHapUdeZmbFc5-12" vertex="1">
          <mxGeometry y="26" width="120" height="26" as="geometry" />
        </mxCell>
        <mxCell id="bZsvWBhSHapUdeZmbFc5-14" value="" style="line;strokeWidth=1;fillColor=none;align=left;verticalAlign=middle;spacingTop=-1;spacingLeft=3;spacingRight=3;rotatable=0;labelPosition=right;points=[];portConstraint=eastwest;strokeColor=inherit;fontSize=17;" parent="bZsvWBhSHapUdeZmbFc5-12" vertex="1">
          <mxGeometry y="52" width="120" height="8" as="geometry" />
        </mxCell>
        <mxCell id="bZsvWBhSHapUdeZmbFc5-15" value="&amp;nbsp; &amp;nbsp;created_at&lt;br style=&quot;font-size: 17px;&quot;&gt;&amp;nbsp; &amp;nbsp;deleted_at&lt;br style=&quot;font-size: 17px;&quot;&gt;&amp;nbsp; &amp;nbsp;user_id&lt;br style=&quot;font-size: 17px;&quot;&gt;&amp;nbsp; &amp;nbsp;video_id" style="text;strokeColor=none;fillColor=none;align=left;verticalAlign=top;spacingLeft=4;spacingRight=4;overflow=hidden;rotatable=0;points=[[0,0.5],[1,0.5]];portConstraint=eastwest;whiteSpace=wrap;html=1;fontSize=17;" parent="bZsvWBhSHapUdeZmbFc5-12" vertex="1">
          <mxGeometry y="60" width="120" height="90" as="geometry" />
        </mxCell>
        <mxCell id="Z4dZEFHS-xQUXx2j8VDQ-1" value="Messages" style="swimlane;fontStyle=1;align=center;verticalAlign=top;childLayout=stackLayout;horizontal=1;startSize=26;horizontalStack=0;resizeParent=1;resizeParentMax=0;resizeLast=0;collapsible=1;marginBottom=0;whiteSpace=wrap;html=1;fillColor=none;fontSize=17;" parent="1" vertex="1">
          <mxGeometry x="460" y="60" width="130" height="170" as="geometry" />
        </mxCell>
        <mxCell id="Z4dZEFHS-xQUXx2j8VDQ-2" value="&amp;nbsp; &amp;nbsp;id" style="text;strokeColor=none;fillColor=none;align=left;verticalAlign=top;spacingLeft=4;spacingRight=4;overflow=hidden;rotatable=0;points=[[0,0.5],[1,0.5]];portConstraint=eastwest;whiteSpace=wrap;html=1;fontSize=17;" parent="Z4dZEFHS-xQUXx2j8VDQ-1" vertex="1">
          <mxGeometry y="26" width="130" height="26" as="geometry" />
        </mxCell>
        <mxCell id="Z4dZEFHS-xQUXx2j8VDQ-3" value="" style="line;strokeWidth=1;fillColor=none;align=left;verticalAlign=middle;spacingTop=-1;spacingLeft=3;spacingRight=3;rotatable=0;labelPosition=right;points=[];portConstraint=eastwest;strokeColor=inherit;fontSize=17;" parent="Z4dZEFHS-xQUXx2j8VDQ-1" vertex="1">
          <mxGeometry y="52" width="130" height="8" as="geometry" />
        </mxCell>
        <mxCell id="Z4dZEFHS-xQUXx2j8VDQ-4" value="&amp;nbsp; &amp;nbsp;created_at&lt;br style=&quot;font-size: 17px;&quot;&gt;&amp;nbsp; &amp;nbsp;deleted_at&lt;br style=&quot;font-size: 17px;&quot;&gt;&amp;nbsp; &amp;nbsp;to_user_id&lt;br style=&quot;font-size: 17px;&quot;&gt;&amp;nbsp; &amp;nbsp;from_user_id&lt;br&gt;&amp;nbsp; &amp;nbsp;content" style="text;strokeColor=none;fillColor=none;align=left;verticalAlign=top;spacingLeft=4;spacingRight=4;overflow=hidden;rotatable=0;points=[[0,0.5],[1,0.5]];portConstraint=eastwest;whiteSpace=wrap;html=1;fontSize=17;" parent="Z4dZEFHS-xQUXx2j8VDQ-1" vertex="1">
          <mxGeometry y="60" width="130" height="110" as="geometry" />
        </mxCell>
        <mxCell id="9vWG8fhy7meuwxoPo0FC-1" value="Relations" style="swimlane;fontStyle=1;align=center;verticalAlign=top;childLayout=stackLayout;horizontal=1;startSize=26;horizontalStack=0;resizeParent=1;resizeParentMax=0;resizeLast=0;collapsible=1;marginBottom=0;whiteSpace=wrap;html=1;fillColor=none;fontSize=17;" vertex="1" parent="1">
          <mxGeometry x="650" y="60" width="120" height="150" as="geometry" />
        </mxCell>
        <mxCell id="9vWG8fhy7meuwxoPo0FC-2" value="&amp;nbsp; &amp;nbsp;id" style="text;strokeColor=none;fillColor=none;align=left;verticalAlign=top;spacingLeft=4;spacingRight=4;overflow=hidden;rotatable=0;points=[[0,0.5],[1,0.5]];portConstraint=eastwest;whiteSpace=wrap;html=1;fontSize=17;" vertex="1" parent="9vWG8fhy7meuwxoPo0FC-1">
          <mxGeometry y="26" width="120" height="26" as="geometry" />
        </mxCell>
        <mxCell id="9vWG8fhy7meuwxoPo0FC-3" value="" style="line;strokeWidth=1;fillColor=none;align=left;verticalAlign=middle;spacingTop=-1;spacingLeft=3;spacingRight=3;rotatable=0;labelPosition=right;points=[];portConstraint=eastwest;strokeColor=inherit;fontSize=17;" vertex="1" parent="9vWG8fhy7meuwxoPo0FC-1">
          <mxGeometry y="52" width="120" height="8" as="geometry" />
        </mxCell>
        <mxCell id="9vWG8fhy7meuwxoPo0FC-4" value="&amp;nbsp; &amp;nbsp;created_at&lt;br style=&quot;font-size: 17px;&quot;&gt;&amp;nbsp; &amp;nbsp;deleted_at&lt;br style=&quot;font-size: 17px;&quot;&gt;&amp;nbsp; &amp;nbsp;user_id&lt;br&gt;&amp;nbsp; &amp;nbsp;fan_id" style="text;strokeColor=none;fillColor=none;align=left;verticalAlign=top;spacingLeft=4;spacingRight=4;overflow=hidden;rotatable=0;points=[[0,0.5],[1,0.5]];portConstraint=eastwest;whiteSpace=wrap;html=1;fontSize=17;" vertex="1" parent="9vWG8fhy7meuwxoPo0FC-1">
          <mxGeometry y="60" width="120" height="90" as="geometry" />
        </mxCell>
        <mxCell id="9vWG8fhy7meuwxoPo0FC-14" value="Users" style="swimlane;fontStyle=1;align=center;verticalAlign=top;childLayout=stackLayout;horizontal=1;startSize=26;horizontalStack=0;resizeParent=1;resizeParentMax=0;resizeLast=0;collapsible=1;marginBottom=0;whiteSpace=wrap;html=1;fillColor=none;fontSize=17;" vertex="1" parent="1">
          <mxGeometry x="60" y="260" width="180" height="290" as="geometry" />
        </mxCell>
        <mxCell id="9vWG8fhy7meuwxoPo0FC-15" value="&amp;nbsp; &amp;nbsp;id" style="text;strokeColor=none;fillColor=none;align=left;verticalAlign=top;spacingLeft=4;spacingRight=4;overflow=hidden;rotatable=0;points=[[0,0.5],[1,0.5]];portConstraint=eastwest;whiteSpace=wrap;html=1;fontSize=17;" vertex="1" parent="9vWG8fhy7meuwxoPo0FC-14">
          <mxGeometry y="26" width="180" height="26" as="geometry" />
        </mxCell>
        <mxCell id="9vWG8fhy7meuwxoPo0FC-16" value="" style="line;strokeWidth=1;fillColor=none;align=left;verticalAlign=middle;spacingTop=-1;spacingLeft=3;spacingRight=3;rotatable=0;labelPosition=right;points=[];portConstraint=eastwest;strokeColor=inherit;fontSize=17;" vertex="1" parent="9vWG8fhy7meuwxoPo0FC-14">
          <mxGeometry y="52" width="180" height="8" as="geometry" />
        </mxCell>
        <mxCell id="9vWG8fhy7meuwxoPo0FC-17" value="&lt;div&gt;&amp;nbsp; &amp;nbsp;name&amp;nbsp; &amp;nbsp; &amp;nbsp; &amp;nbsp; &amp;nbsp; &amp;nbsp; &amp;nbsp;&lt;/div&gt;&lt;div&gt;&amp;nbsp; &amp;nbsp;follow_count&amp;nbsp; &amp;nbsp; &amp;nbsp;&lt;/div&gt;&lt;div&gt;&amp;nbsp; &amp;nbsp;follower_count&amp;nbsp; &amp;nbsp;&lt;/div&gt;&lt;div&gt;&amp;nbsp; &amp;nbsp;is_follow&amp;nbsp; &amp;nbsp; &amp;nbsp; &amp;nbsp;&amp;nbsp;&lt;/div&gt;&lt;div&gt;&amp;nbsp; &amp;nbsp;avatar&amp;nbsp; &amp;nbsp; &amp;nbsp; &amp;nbsp; &amp;nbsp; &amp;nbsp;&lt;/div&gt;&lt;div&gt;&amp;nbsp; &amp;nbsp;background_image&amp;nbsp;&lt;/div&gt;&lt;div&gt;&amp;nbsp; &amp;nbsp;signature&amp;nbsp; &amp;nbsp; &amp;nbsp; &amp;nbsp;&amp;nbsp;&lt;/div&gt;&lt;div&gt;&amp;nbsp; &amp;nbsp;total_favorited&amp;nbsp;&amp;nbsp;&lt;/div&gt;&lt;div&gt;&amp;nbsp; &amp;nbsp;work_count&amp;nbsp; &amp;nbsp; &amp;nbsp; &amp;nbsp;&lt;/div&gt;&lt;div&gt;&amp;nbsp; &amp;nbsp;favorite_count&amp;nbsp; &amp;nbsp;&lt;/div&gt;&lt;div&gt;&amp;nbsp; &amp;nbsp;password&amp;nbsp; &amp;nbsp; &amp;nbsp; &amp;nbsp; &amp;nbsp;&lt;/div&gt;&lt;div&gt;&lt;br&gt;&lt;/div&gt;" style="text;strokeColor=none;fillColor=none;align=left;verticalAlign=top;spacingLeft=4;spacingRight=4;overflow=hidden;rotatable=0;points=[[0,0.5],[1,0.5]];portConstraint=eastwest;whiteSpace=wrap;html=1;fontSize=17;" vertex="1" parent="9vWG8fhy7meuwxoPo0FC-14">
          <mxGeometry y="60" width="180" height="230" as="geometry" />
        </mxCell>
        <mxCell id="9vWG8fhy7meuwxoPo0FC-18" value="id             &#xa;   author_id      &#xa;   play_url       &#xa;   cover_url      &#xa;   favorite_count &#xa;   comment_count  &#xa;   title          &#xa;   create_time    &#xa;   deleted_at     &#xa;   created_at     &#xa;   updated_at" style="text;whiteSpace=wrap;" vertex="1" parent="1">
          <mxGeometry x="500" y="480" width="140" height="180" as="geometry" />
        </mxCell>
        <mxCell id="9vWG8fhy7meuwxoPo0FC-19" value="Videos" style="swimlane;fontStyle=1;align=center;verticalAlign=top;childLayout=stackLayout;horizontal=1;startSize=26;horizontalStack=0;resizeParent=1;resizeParentMax=0;resizeLast=0;collapsible=1;marginBottom=0;whiteSpace=wrap;html=1;fillColor=none;fontSize=17;" vertex="1" parent="1">
          <mxGeometry x="290" y="260" width="180" height="290" as="geometry" />
        </mxCell>
        <mxCell id="9vWG8fhy7meuwxoPo0FC-20" value="&amp;nbsp; &amp;nbsp;id" style="text;strokeColor=none;fillColor=none;align=left;verticalAlign=top;spacingLeft=4;spacingRight=4;overflow=hidden;rotatable=0;points=[[0,0.5],[1,0.5]];portConstraint=eastwest;whiteSpace=wrap;html=1;fontSize=17;" vertex="1" parent="9vWG8fhy7meuwxoPo0FC-19">
          <mxGeometry y="26" width="180" height="26" as="geometry" />
        </mxCell>
        <mxCell id="9vWG8fhy7meuwxoPo0FC-21" value="" style="line;strokeWidth=1;fillColor=none;align=left;verticalAlign=middle;spacingTop=-1;spacingLeft=3;spacingRight=3;rotatable=0;labelPosition=right;points=[];portConstraint=eastwest;strokeColor=inherit;fontSize=17;" vertex="1" parent="9vWG8fhy7meuwxoPo0FC-19">
          <mxGeometry y="52" width="180" height="8" as="geometry" />
        </mxCell>
        <mxCell id="9vWG8fhy7meuwxoPo0FC-22" value="&lt;div&gt;&amp;nbsp; &amp;nbsp;name&amp;nbsp; &amp;nbsp; &amp;nbsp; &amp;nbsp; &amp;nbsp; &amp;nbsp; &amp;nbsp;&lt;/div&gt;&lt;div&gt;&amp;nbsp; &amp;nbsp;follow_count&amp;nbsp; &amp;nbsp; &amp;nbsp;&lt;/div&gt;&lt;div&gt;&amp;nbsp; &amp;nbsp;follower_count&amp;nbsp; &amp;nbsp;&lt;/div&gt;&lt;div&gt;&amp;nbsp; &amp;nbsp;is_follow&amp;nbsp; &amp;nbsp; &amp;nbsp; &amp;nbsp;&amp;nbsp;&lt;/div&gt;&lt;div&gt;&amp;nbsp; &amp;nbsp;avatar&amp;nbsp; &amp;nbsp; &amp;nbsp; &amp;nbsp; &amp;nbsp; &amp;nbsp;&lt;/div&gt;&lt;div&gt;&amp;nbsp; &amp;nbsp;background_image&amp;nbsp;&lt;/div&gt;&lt;div&gt;&amp;nbsp; &amp;nbsp;signature&amp;nbsp; &amp;nbsp; &amp;nbsp; &amp;nbsp;&amp;nbsp;&lt;/div&gt;&lt;div&gt;&amp;nbsp; &amp;nbsp;total_favorited&amp;nbsp;&amp;nbsp;&lt;/div&gt;&lt;div&gt;&amp;nbsp; &amp;nbsp;work_count&amp;nbsp; &amp;nbsp; &amp;nbsp; &amp;nbsp;&lt;/div&gt;&lt;div&gt;&amp;nbsp; &amp;nbsp;favorite_count&amp;nbsp; &amp;nbsp;&lt;/div&gt;&lt;div&gt;&amp;nbsp; &amp;nbsp;password&amp;nbsp; &amp;nbsp; &amp;nbsp; &amp;nbsp; &amp;nbsp;&lt;/div&gt;&lt;div&gt;&lt;br&gt;&lt;/div&gt;" style="text;strokeColor=none;fillColor=none;align=left;verticalAlign=top;spacingLeft=4;spacingRight=4;overflow=hidden;rotatable=0;points=[[0,0.5],[1,0.5]];portConstraint=eastwest;whiteSpace=wrap;html=1;fontSize=17;" vertex="1" parent="9vWG8fhy7meuwxoPo0FC-19">
          <mxGeometry y="60" width="180" height="230" as="geometry" />
        </mxCell>
      </root>
    </mxGraphModel>
  </diagram>
</mxfile>
